#!OML:ASF H:\ManfredETheater\Project 1\Capture day 1\Session 1\subject.ASF
:FULLY-SPECIFIED
:DEGREES
47
root 10.3444 15.3691 21.4303 -165.401 -22.1356 188.874
lowerback 12.2552 6.22804 9.15797
upperback 0.963408 9.36983 2.04072
thorax -4.67458 4.33068 -4.32123
lowerneck -11.7471 -5.21026 -3.54859
upperneck -8.07549 -7.22511 0.688073
head -0.451213 -3.82781 0.567691
rclavicle 7.31528e-014 1.90833e-014
rhumerus -24.0327 30.4231 -91.5954
rradius 114.81
rwrist -4.94659
rhand -29.3709 4.85198
rfingers 7.12502
rthumb -2.7099 -25.1106
lclavicle 7.31528e-014 1.90833e-014
lhumerus -92.3318 -7.64746 84.4692
lradius 93.5059
lwrist 17.8337
lhand -23.4099 -13.7866
lfingers 7.12502
lthumb 3.04729 16.1714
rfemur 14.4306 1.41316 27.4898
rtibia 36.94
rfoot 21.3724 -8.51567
rtoes -19.5007
lfemur -73.9835 3.42456 -16.8849
ltibia 56.5425
lfoot -8.17592 -6.66429
ltoes -16.3991
48
root 10.1949 15.3985 20.956 -165.804 -22.7277 188.331
lowerback 12.8499 5.95276 8.47713
upperback 0.970569 8.98353 1.81264
thorax -5.11362 4.13831 -4.22994
lowerneck -11.6982 -5.14001 -3.39007
upperneck -8.55557 -7.17861 0.959222
head -0.604546 -3.81774 0.638286
rclavicle -1.00585e-013 -1.35174e-014
rhumerus -25.1622 29.116 -93.7864
rradius 112.479
rwrist -4.38749
rhand -29.4602 4.85923
rfingers 7.12502
rthumb -2.79618 -25.1022
lclavicle -1.00585e-013 -1.35174e-014
lhumerus -88.8563 -5.94579 84.8113
lradius 93.0411
lwrist 18.0786
lhand -23.3596 -13.3506
lfingers 7.12502
lthumb 3.09586 16.6067
rfemur 11.834 0.520653 27.0457
rtibia 43.6664
rfoot 18.0617 -9.48385
rtoes -20.2949
lfemur -72.9042 3.17651 -17.6672
ltibia 58.6289
lfoot -8.02047 -6.74412
ltoes -14.0156
49
root 10.049 15.4295 20.4863 -166.14 -23.4195 187.427
lowerback 13.5062 5.61209 7.54908
upperback 1.02397 8.46139 1.50312
thorax -5.57045 3.88786 -4.06555
lowerneck -11.6649 -5.052 -3.21109
upperneck -9.03036 -7.11167 1.20358
head -0.75619 -3.80065 0.698073
rclavicle 5.56597e-015 -4.21423e-014
rhumerus -26.341 27.4263 -95.834
rradius 109.889
rwrist -3.78577
rhand -29.5475 4.86177
rfingers 7.12502
rthumb -2.88044 -25.0985
lclavicle 5.56597e-015 -4.21423e-014
lhumerus -85.007 -4.44688 85.4932
lradius 92.428
lwrist 18.0764
lhand -23.4439 -13.0647
lfingers 7.12502
lthumb 3.01446 16.8937
rfemur 9.14289 -0.517257 26.2434
rtibia 50.4375
rfoot 15.1384 -9.87541
rtoes -20.5024
lfemur -71.5717 2.72226 -18.7024
ltibia 60.557
lfoot -8.28056 -6.82865
ltoes -11.1769
50
root 9.90439 15.4636 20.0204 -166.385 -24.1641 186.206
lowerback 14.1807 5.23919 6.39406
upperback 1.11696 7.83659 1.12727
thorax -6.01601 3.59577 -3.8145
lowerneck -11.661 -4.96019 -3.04101
upperneck -9.46018 -7.03566 1.43907
head -0.889821 -3.78032 0.755481
rclavicle -5.12864e-014 -2.70347e-014
rhumerus -27.531 25.4152 -97.6088
rradius 107.053
rwrist -3.31208
rhand -29.7365 4.83245
rfingers 7.12502
rthumb -3.06294 -25.1253
lclavicle -5.12864e-014 -2.70347e-014
lhumerus -80.7679 -3.24033 86.5458
lradius 91.6828
lwrist 17.8955
lhand -23.649 -13.0351
lfingers 7.12502
lthumb 2.81637 16.926
rfemur 6.33502 -1.66941 25.078
rtibia 57.2332
rfoot 12.5253 -9.69513
rtoes -20.4707
lfemur -69.9458 2.08807 -19.9288
ltibia 62.2162
lfoot -8.95042 -6.80619
ltoes -7.96164
51
root 9.75811 15.5005 19.5596 -166.504 -24.889 184.756
lowerback 14.814 4.87436 5.07965
upperback 1.22391 7.1643 0.703348
thorax -6.42527 3.28747 -3.49285
lowerneck -11.6909 -4.88072 -2.91328
upperneck -9.80392 -6.96368 1.68867
head -0.989606 -3.76051 0.821312
rclavicle 7.55382e-014 -2.38542e-014
rhumerus -28.7229 23.1573 -99.0126
rradius 103.979
rwrist -3.15856
rhand -30.1191 4.72859
rfingers 7.12502
rthumb -3.43243 -25.2235
lclavicle 7.55382e-014 -2.38542e-014
lhumerus -76.1125 -2.41814 87.9703
lradius 90.8144
lwrist 17.6139
lhand -23.9129 -13.2852
lfingers 7.12502
lthumb 2.56146 16.6791
rfemur 3.34565 -2.87884 23.5687
rtibia 64.0258
rfoot 10.1159 -8.97592
rtoes -20.436
lfemur -68.0523 1.32702 -21.263
ltibia 63.5464
lfoot -10.0667 -6.64763
ltoes -5.07783
52
root 9.60764 15.5401 19.1065 -166.505 -25.5849 183.228
lowerback 15.376 4.52094 3.76154
upperback 1.31205 6.4751 0.257742
thorax -6.79468 2.97293 -3.16214
lowerneck -11.7676 -4.82399 -2.84502
upperneck -10.0154 -6.90254 1.97597
head -1.03708 -3.74199 0.903821
rclavicle 9.14409e-015 -1.82882e-014
rhumerus -29.9045 20.7518 -99.9787
rradius 100.664
rwrist -3.49802
rhand -30.7286 4.50718
rfingers 7.12502
rthumb -4.02107 -25.4346
lclavicle 9.14409e-015 -1.82882e-014
lhumerus -71.0506 -2.09437 89.7166
lradius 89.8686
lwrist 17.2929
lhand -24.165 -13.7824
lfingers 7.12502
lthumb 2.31797 16.1848
rfemur 0.126954 -4.1228 21.8373
rtibia 70.7668
rfoot 7.84191 -7.81152
rtoes -20.5414
lfemur -65.984 0.491796 -22.589
ltibia 64.556
lfoot -11.3037 -6.36734
ltoes -2.61238
53
root 9.45256 15.5811 18.6637 -166.435 -26.2253 181.778
lowerback 15.8715 4.18298 2.57138
upperback 1.35845 5.80461 -0.176988
thorax -7.1396 2.66529 -2.8728
lowerneck -11.9274 -4.7933 -2.84764
upperneck -10.0484 -6.85182 2.31437
head -1.01071 -3.7223 1.00693
rclavicle 1.42727e-013 2.78299e-015
rhumerus -31.0877 18.2929 -100.475
rradius 97.1422
rwrist -4.46781
rhand -31.5232 4.21398
rfingers 7.12502
rthumb -4.78832 -25.7119
lclavicle 1.42727e-013 2.78299e-015
lhumerus -65.6092 -2.33895 91.6834
lradius 88.8979
lwrist 16.9449
lhand -24.3466 -14.4163
lfingers 7.12502
lthumb 2.14265 15.5527
rfemur -3.35243 -5.35246 20.0284
rtibia 77.4136
rfoot 5.65647 -6.3589
rtoes -20.8351
lfemur -63.8135 -0.347478 -23.7921
ltibia 65.285
lfoot -12.7 -5.95722
ltoes -0.89488
54
root 9.29574 15.6264 18.2316 -166.351 -26.8702 180.547
lowerback 16.3115 3.84215 1.61071
upperback 1.33917 5.15856 -0.5603
thorax -7.4912 2.36499 -2.6465
lowerneck -12.1469 -4.78734 -2.90491
upperneck -9.89866 -6.81142 2.70394
head -0.912873 -3.70004 1.12905
rclavicle -3.12092e-014 -1.27222e-014
rhumerus -32.3098 15.8367 -100.503
rradius 93.4753
rwrist -5.98553
rhand -32.4578 3.9736
rfingers 7.12502
rthumb -5.6907 -25.93
lclavicle -3.12092e-014 -1.27222e-014
lhumerus -59.8964 -3.20782 93.7394
lradius 88.0112
lwrist 16.5251
lhand -24.3861 -15.0801
lfingers 7.12502
lthumb 2.10451 14.8893
rfemur -7.11679 -6.59019 18.3336
rtibia 83.9014
rfoot 3.56267 -4.83849
rtoes -21.0497
lfemur -61.604 -1.16576 -24.7458
ltibia 65.7848
lfoot -14.2283 -5.49003
ltoes 0.336247
